<?xml version="1.0" standalone="no"?>
<!DOCTYPE svg PUBLIC "-//W3C//DTD SVG 20000303 Stylable//EN"
"http://www.w3.org/TR/2000/03/WD-SVG-20000303/DTD/svg-20000303-stylable.dtd">
<!-- Title: cocome.xml -->
<!-- Creator: lqn2svg Version 5.25 -->
<!-- Tue Mar  8 15:19:59 2022 -->
<!-- For: xeder -->
<!-- Invoked as: lqn2svg cocome.xml -->
<svg xmlns="http://www.w3.org/2000/svg" width="9.0625in" height="6.625in" viewBox="0 0 16313 11925">
<desc>0x559d555a2070</desc>
<!-- Task Cashier_r  cashierBes1 cashierBes0 CashierBes2 -1 Cashier -->
<polygon  fill="#ffffff" stroke="black" stroke-width="25" points="2744.38,500 5916.88,500 5804.38,1625 2631.88,1625 "/>
<polygon  fill="#ffffff" stroke="black" stroke-width="25" points="2694.38,450 5866.88,450 5754.38,1575 2581.88,1575 "/>
<text x="4224" y="1444" font-family="Times" font-style="Roman" font-size="225" fill="black" text-anchor="middle">Cashier_ {2}</text>
<!-- Entry CashierBes2 s [1] -->
<polyline  stroke="black" stroke-width="25" fill="none" points="2626.88,1125 3684.38,1125 3751.88,450 "/>
<text x="3189" y="975" font-family="Times" font-style="Roman" font-size="225" fill="black" text-anchor="middle">[1]</text>
<text x="3189" y="750" font-family="Times" font-style="Roman" font-size="225" fill="black" text-anchor="middle">CashierBes2</text>
<!-- Call CashierBes2 stopSaleBes y (1) -->
<line x1="3189.38" y1="1125" x2="8561.25" y2="5400" stroke="black" stroke-width="25"/>
<polygon fill="black" stroke="black" stroke-width="25" points="8561.25,5400 8475.01,5267.47 8463.44,5322.16 8412.75,5345.72 "/>
<text x="7996" y="5044" font-family="Times" font-style="Roman" font-size="225" fill="black" text-anchor="middle">(1)</text>
<!-- Entry cashierBes0 s [1] -->
<polyline  stroke="black" stroke-width="25" fill="none" points="3684.38,1125 4741.88,1125 4809.38,450 "/>
<text x="4247" y="975" font-family="Times" font-style="Roman" font-size="225" fill="black" text-anchor="middle">[1]</text>
<text x="4247" y="750" font-family="Times" font-style="Roman" font-size="225" fill="black" text-anchor="middle">cashierBes0</text>
<!-- Call cashierBes0 cashBoxBes0 y (1) -->
<line x1="4246.88" y1="1125" x2="3116.25" y2="2925" stroke="black" stroke-width="25"/>
<polygon fill="black" stroke="black" stroke-width="25" points="3116.25,2925 3238.38,2824.57 3182.74,2819.15 3153.69,2771.38 "/>
<text x="3399" y="2569" font-family="Times" font-style="Roman" font-size="225" fill="black" text-anchor="middle">(1)</text>
<!-- Entry cashierBes1 s [1] -->
<line x1="4741.88" y1="1125" x2="5799.38" y2="1125" stroke="black" stroke-width="25"/>
<text x="5304" y="975" font-family="Times" font-style="Roman" font-size="225" fill="black" text-anchor="middle">[1]</text>
<text x="5304" y="750" font-family="Times" font-style="Roman" font-size="225" fill="black" text-anchor="middle">cashierBes1</text>
<!-- Call cashierBes1 scannerBes0 y (1) -->
<line x1="5304.38" y1="1125" x2="11891.2" y2="2925" stroke="black" stroke-width="25"/>
<polygon fill="black" stroke="black" stroke-width="25" points="11891.2,2925 11759.7,2837.23 11770.7,2892.05 11733.4,2933.69 "/>
<text x="10245" y="2569" font-family="Times" font-style="Roman" font-size="225" fill="black" text-anchor="middle">(1)</text>
<!-- Call Cashier_ Cashier -->
<line x1="4224.38" y1="1575" x2="4623.99" y2="2947.43" stroke="black" stroke-width="25"/>
<polygon fill="black" stroke="black" stroke-width="25" points="4623.99,2947.43 4630.07,2789.43 4589.05,2827.41 4534.05,2817.39 "/>
<!-- Task EnterpriseManager_r  enterpriseManagerBES -1 EnterpriseManager -->
<polygon  fill="#ffffff" stroke="black" stroke-width="25" points="8161.25,500 9848.75,500 9736.25,1625 8048.75,1625 "/>
<polygon  fill="#ffffff" stroke="black" stroke-width="25" points="8111.25,450 9798.75,450 9686.25,1575 7998.75,1575 "/>
<text x="8899" y="1444" font-family="Times" font-style="Roman" font-size="225" fill="black" text-anchor="middle">EnterpriseManager_ {2}</text>
<!-- Entry enterpriseManagerBES s [1] -->
<polyline  stroke="black" stroke-width="25" fill="none" points="8426.25,450 8358.75,1125 9416.25,1125 9483.75,450 "/>
<text x="8921" y="975" font-family="Times" font-style="Roman" font-size="225" fill="black" text-anchor="middle">[1]</text>
<text x="8921" y="750" font-family="Times" font-style="Roman" font-size="225" fill="black" text-anchor="middle">enterpriseManagerBES</text>
<!-- Call enterpriseManagerBES guiReportingBES y (1) -->
<line x1="8921.25" y1="1125" x2="7841.25" y2="2925" stroke="black" stroke-width="25"/>
<polygon fill="black" stroke="black" stroke-width="25" points="7841.25,2925 7961.3,2822.1 7905.56,2817.81 7875.55,2770.65 "/>
<text x="8111" y="2569" font-family="Times" font-style="Roman" font-size="225" fill="black" text-anchor="middle">(1)</text>
<!-- Call EnterpriseManager_ EnterpriseManager -->
<line x1="8448.75" y1="1575" x2="6565.1" y2="3129.47" stroke="black" stroke-width="25"/>
<polygon fill="black" stroke="black" stroke-width="25" points="6565.1,3129.47 6712.61,3072.56 6661.51,3049.91 6648.96,2995.43 "/>
<!-- Task StockManager_r  stockManagerBes -1 StockManager -->
<polygon  fill="#ffffff" stroke="black" stroke-width="25" points="12093.1,500 13780.6,500 13668.1,1625 11980.6,1625 "/>
<polygon  fill="#ffffff" stroke="black" stroke-width="25" points="12043.1,450 13730.6,450 13618.1,1575 11930.6,1575 "/>
<text x="12831" y="1444" font-family="Times" font-style="Roman" font-size="225" fill="black" text-anchor="middle">StockManager_ {2}</text>
<!-- Entry stockManagerBes s [1] -->
<polyline  stroke="black" stroke-width="25" fill="none" points="12358.1,450 12290.6,1125 13348.1,1125 13415.6,450 "/>
<text x="12853" y="975" font-family="Times" font-style="Roman" font-size="225" fill="black" text-anchor="middle">[1]</text>
<text x="12853" y="750" font-family="Times" font-style="Roman" font-size="225" fill="black" text-anchor="middle">stockManagerBes</text>
<!-- Call stockManagerBes guiStoreBes y (1) -->
<line x1="12853.1" y1="1125" x2="9866.25" y2="2925" stroke="black" stroke-width="25"/>
<polygon fill="black" stroke="black" stroke-width="25" points="9866.25,2925 10020.5,2890.4 9973.31,2860.48 9968.92,2804.75 "/>
<text x="10613" y="2569" font-family="Times" font-style="Roman" font-size="225" fill="black" text-anchor="middle">(1)</text>
<!-- Call StockManager_ StockManager -->
<line x1="13280.6" y1="1575" x2="13476" y2="2930.75" stroke="black" stroke-width="25"/>
<polygon fill="black" stroke="black" stroke-width="25" points="13476,2930.75 13504.1,2775.15 13458.2,2807.03 13405.1,2789.42 "/>
<!-- Task CashBoxControllern  cashBoxBes0 -1 CashBox -->
<polygon  fill="#ffffff" stroke="black" stroke-width="25" points="2306.25,2925 3993.75,2925 3881.25,4050 2193.75,4050 "/>
<text x="3094" y="3919" font-family="Times" font-style="Roman" font-size="225" fill="black" text-anchor="middle">CashBoxController</text>
<!-- Entry cashBoxBes0 s [1] -->
<polyline  stroke="black" stroke-width="25" fill="none" points="2621.25,2925 2553.75,3600 3611.25,3600 3678.75,2925 "/>
<text x="3116" y="3450" font-family="Times" font-style="Roman" font-size="225" fill="black" text-anchor="middle">[1]</text>
<text x="3116" y="3225" font-family="Times" font-style="Roman" font-size="225" fill="black" text-anchor="middle">cashBoxBes0</text>
<!-- Call cashBoxBes0 guiBes0 y (1) -->
<line x1="2835" y1="3600" x2="3465" y2="7875" stroke="black" stroke-width="25"/>
<polygon fill="black" stroke="black" stroke-width="25" points="3465,7875 3492.6,7719.31 3446.78,7751.34 3393.67,7733.89 "/>
<text x="3399" y="7519" font-family="Times" font-style="Roman" font-size="225" fill="black" text-anchor="middle">(1)</text>
<!-- Call cashBoxBes0 cashDeskBesStart y (1) -->
<line x1="3116.25" y1="3600" x2="7503.75" y2="5400" stroke="black" stroke-width="25"/>
<polygon fill="black" stroke="black" stroke-width="25" points="7503.75,5400 7383.95,5296.81 7388.1,5352.56 7346,5389.32 "/>
<text x="6407" y="5044" font-family="Times" font-style="Roman" font-size="225" fill="black" text-anchor="middle">(1)</text>
<!-- Call cashBoxBes0 printerDeskBesStart y (1) -->
<line x1="3397.5" y1="3600" x2="15300" y2="7875" stroke="black" stroke-width="25"/>
<polygon fill="black" stroke="black" stroke-width="25" points="15300,7875 15175.7,7777.24 15182.4,7832.75 15141.9,7871.35 "/>
<text x="14047" y="7519" font-family="Times" font-style="Roman" font-size="225" fill="black" text-anchor="middle">(1)</text>
<!-- Call CashBoxController CashBox -->
<line x1="3543.75" y1="4050" x2="4703.04" y2="5520.74" stroke="black" stroke-width="25"/>
<polygon fill="black" stroke="black" stroke-width="25" points="4703.04,5520.74 4649.45,5371.98 4625.66,5422.57 4570.91,5433.89 "/>
<!-- Processor Cashier FCFS -->
<circle cx="4781" cy="3488" r="563"  fill="#ffffff" stroke="black" stroke-width="25"/>
<text x="4781" y="3581" font-family="Times" font-style="Roman" font-size="225" fill="black" text-anchor="middle">Cashier</text>
<!-- Processor EnterpriseManager FCFS -->
<circle cx="6131" cy="3488" r="563"  fill="#ffffff" stroke="black" stroke-width="25"/>
<text x="6131" y="3581" font-family="Times" font-style="Roman" font-size="225" fill="black" text-anchor="middle">EnterpriseManager</text>
<!-- Task GUIReportingn  guiReportingBES -1 EnterpriseClient -->
<polygon  fill="#ffffff" stroke="black" stroke-width="25" points="7031.25,2925 8718.75,2925 8606.25,4050 6918.75,4050 "/>
<text x="7819" y="3919" font-family="Times" font-style="Roman" font-size="225" fill="black" text-anchor="middle">GUIReporting</text>
<!-- Entry guiReportingBES s [1] -->
<polyline  stroke="black" stroke-width="25" fill="none" points="7346.25,2925 7278.75,3600 8336.25,3600 8403.75,2925 "/>
<text x="7841" y="3450" font-family="Times" font-style="Roman" font-size="225" fill="black" text-anchor="middle">[1]</text>
<text x="7841" y="3225" font-family="Times" font-style="Roman" font-size="225" fill="black" text-anchor="middle">guiReportingBES</text>
<!-- Call guiReportingBES appReportingBes y (1) -->
<line x1="7841.25" y1="3600" x2="11621.2" y2="5400" stroke="black" stroke-width="25"/>
<polygon fill="black" stroke="black" stroke-width="25" points="11621.2,5400 11507.3,5290.37 11508.4,5346.26 11464.3,5380.65 "/>
<text x="10676" y="5044" font-family="Times" font-style="Roman" font-size="225" fill="black" text-anchor="middle">(1)</text>
<!-- Call GUIReporting EnterpriseClient -->
<line x1="8268.75" y1="4050" x2="9544.77" y2="5535.77" stroke="black" stroke-width="25"/>
<polygon fill="black" stroke="black" stroke-width="25" points="9544.77,5535.77 9484.97,5389.4 9463.33,5440.94 9409.11,5454.56 "/>
<!-- Task GUIStoren  guiStoreBes -1 EnterpriseClient -->
<polygon  fill="#ffffff" stroke="black" stroke-width="25" points="9056.25,2925 10743.8,2925 10631.2,4050 8943.75,4050 "/>
<text x="9844" y="3919" font-family="Times" font-style="Roman" font-size="225" fill="black" text-anchor="middle">GUIStore</text>
<!-- Entry guiStoreBes s [1] -->
<polyline  stroke="black" stroke-width="25" fill="none" points="9371.25,2925 9303.75,3600 10361.2,3600 10428.8,2925 "/>
<text x="9866" y="3450" font-family="Times" font-style="Roman" font-size="225" fill="black" text-anchor="middle">[1]</text>
<text x="9866" y="3225" font-family="Times" font-style="Roman" font-size="225" fill="black" text-anchor="middle">guiStoreBes</text>
<!-- Call guiStoreBes appStoreBes y (1) -->
<line x1="9866.25" y1="3600" x2="3386.25" y2="5400" stroke="black" stroke-width="25"/>
<polygon fill="black" stroke="black" stroke-width="25" points="3386.25,5400 3544.16,5408.03 3506.69,5366.54 3517.4,5311.68 "/>
<text x="5006" y="5044" font-family="Times" font-style="Roman" font-size="225" fill="black" text-anchor="middle">(1)</text>
<!-- Call GUIStore EnterpriseClient -->
<line x1="9843.75" y1="4050" x2="9891.41" y2="5400.35" stroke="black" stroke-width="25"/>
<polygon fill="black" stroke="black" stroke-width="25" points="9891.41,5400.35 9936.09,5248.68 9887,5275.43 9836.15,5252.21 "/>
<!-- Task ScannerControllern  scannerBes0 -1 BarCodeScanner -->
<polygon  fill="#ffffff" stroke="black" stroke-width="25" points="11081.2,2925 12768.8,2925 12656.2,4050 10968.8,4050 "/>
<text x="11869" y="3919" font-family="Times" font-style="Roman" font-size="225" fill="black" text-anchor="middle">ScannerController</text>
<!-- Entry scannerBes0 s [1] -->
<polyline  stroke="black" stroke-width="25" fill="none" points="11396.2,2925 11328.8,3600 12386.2,3600 12453.8,2925 "/>
<text x="11891" y="3450" font-family="Times" font-style="Roman" font-size="225" fill="black" text-anchor="middle">[1]</text>
<text x="11891" y="3225" font-family="Times" font-style="Roman" font-size="225" fill="black" text-anchor="middle">scannerBes0</text>
<!-- Call scannerBes0 cashDeskBes1 y (1) -->
<line x1="11891.2" y1="3600" x2="6446.25" y2="5400" stroke="black" stroke-width="25"/>
<polygon fill="black" stroke="black" stroke-width="25" points="6446.25,5400 6604.36,5400.39 6564.93,5360.77 6572.98,5305.45 "/>
<text x="7808" y="5044" font-family="Times" font-style="Roman" font-size="225" fill="black" text-anchor="middle">(1)</text>
<!-- Call ScannerController BarCodeScanner -->
<line x1="12318.8" y1="4050" x2="13032.3" y2="5460.57" stroke="black" stroke-width="25"/>
<polygon fill="black" stroke="black" stroke-width="25" points="13032.3,5460.57 13009.2,5304.15 12975.9,5349.03 12920,5349.29 "/>
<!-- Processor StockManager FCFS -->
<circle cx="13556" cy="3488" r="563"  fill="#ffffff" stroke="black" stroke-width="25"/>
<text x="13556" y="3581" font-family="Times" font-style="Roman" font-size="225" fill="black" text-anchor="middle">StockManager</text>
<!-- Task AppStoren  appStoreBes -1 StoreServer -->
<polygon  fill="#ffffff" stroke="black" stroke-width="25" points="2576.25,5400 4263.75,5400 4151.25,6525 2463.75,6525 "/>
<text x="3364" y="6394" font-family="Times" font-style="Roman" font-size="225" fill="black" text-anchor="middle">AppStore</text>
<!-- Entry appStoreBes s [1] -->
<polyline  stroke="black" stroke-width="25" fill="none" points="2891.25,5400 2823.75,6075 3881.25,6075 3948.75,5400 "/>
<text x="3386" y="5925" font-family="Times" font-style="Roman" font-size="225" fill="black" text-anchor="middle">[1]</text>
<text x="3386" y="5700" font-family="Times" font-style="Roman" font-size="225" fill="black" text-anchor="middle">appStoreBes</text>
<!-- Call appStoreBes dataStoreBes0 y (1) -->
<line x1="3105" y1="6075" x2="4860" y2="7875" stroke="black" stroke-width="25"/>
<polygon fill="black" stroke="black" stroke-width="25" points="4860,7875 4791.08,7732.69 4772.74,7785.5 4719.48,7802.5 "/>
<text x="4421" y="7519" font-family="Times" font-style="Roman" font-size="225" fill="black" text-anchor="middle">(1)</text>
<!-- Call appStoreBes dataStoreBes1 y (1) -->
<line x1="3386.25" y1="6075" x2="5917.5" y2="7875" stroke="black" stroke-width="25"/>
<polygon fill="black" stroke="black" stroke-width="25" points="5917.5,7875 5824.23,7747.32 5815.63,7802.56 5766.28,7828.82 "/>
<text x="5285" y="7519" font-family="Times" font-style="Roman" font-size="225" fill="black" text-anchor="middle">(1)</text>
<!-- Call appStoreBes persistenceBes y (1) -->
<line x1="3667.5" y1="6075" x2="12847.5" y2="7875" stroke="black" stroke-width="25"/>
<polygon fill="black" stroke="black" stroke-width="25" points="12847.5,7875 12709.9,7797.07 12724.8,7850.95 12690.7,7895.2 "/>
<text x="10553" y="7519" font-family="Times" font-style="Roman" font-size="225" fill="black" text-anchor="middle">(1)</text>
<!-- Call AppStore StoreServer -->
<line x1="3813.75" y1="6525" x2="5868.53" y2="10415.1" stroke="black" stroke-width="25"/>
<polygon fill="black" stroke="black" stroke-width="25" points="5868.53,10415.1 5842.69,10259.1 5810.15,10304.6 5754.26,10305.8 "/>
<!-- Processor CashBox FCFS -->
<circle cx="5051" cy="5963" r="563"  fill="#ffffff" stroke="black" stroke-width="25"/>
<text x="5051" y="6056" font-family="Times" font-style="Roman" font-size="225" fill="black" text-anchor="middle">CashBox</text>
<!-- Task CashDeskApplicationn  stopSaleBes cashDeskBesStart cashDeskBes1 -1 CashDeskPC -->
<polygon  fill="#ffffff" stroke="black" stroke-width="25" points="5951.25,5400 9123.75,5400 9011.25,6525 5838.75,6525 "/>
<text x="7481" y="6394" font-family="Times" font-style="Roman" font-size="225" fill="black" text-anchor="middle">CashDeskApplication</text>
<!-- Entry cashDeskBes1 s [1] -->
<polyline  stroke="black" stroke-width="25" fill="none" points="5883.75,6075 6941.25,6075 7008.75,5400 "/>
<text x="6446" y="5925" font-family="Times" font-style="Roman" font-size="225" fill="black" text-anchor="middle">[1]</text>
<text x="6446" y="5700" font-family="Times" font-style="Roman" font-size="225" fill="black" text-anchor="middle">cashDeskBes1</text>
<!-- Call cashDeskBes1 guiBes1 y (1) -->
<line x1="6165" y1="6075" x2="2407.5" y2="7875" stroke="black" stroke-width="25"/>
<polygon fill="black" stroke="black" stroke-width="25" points="2407.5,7875 2564.38,7855.29 2520.23,7821 2521.18,7765.1 "/>
<text x="3347" y="7519" font-family="Times" font-style="Roman" font-size="225" fill="black" text-anchor="middle">(1)</text>
<!-- Call cashDeskBes1 inventoryBes0 y (1) -->
<line x1="6446.25" y1="6075" x2="10080" y2="7875" stroke="black" stroke-width="25"/>
<polygon fill="black" stroke="black" stroke-width="25" points="10080,7875 9967.78,7763.61 9967.99,7819.51 9923.39,7853.22 "/>
<text x="9172" y="7519" font-family="Times" font-style="Roman" font-size="225" fill="black" text-anchor="middle">(1)</text>
<!-- Call cashDeskBes1 printerBes1 y (1) -->
<line x1="6727.5" y1="6075" x2="14242.5" y2="7875" stroke="black" stroke-width="25"/>
<polygon fill="black" stroke="black" stroke-width="25" points="14242.5,7875 14108.3,7791.44 14120.9,7845.88 14085,7888.68 "/>
<text x="12364" y="7519" font-family="Times" font-style="Roman" font-size="225" fill="black" text-anchor="middle">(1)</text>
<!-- Entry cashDeskBesStart s [1] -->
<polyline  stroke="black" stroke-width="25" fill="none" points="6941.25,6075 7998.75,6075 8066.25,5400 "/>
<text x="7504" y="5925" font-family="Times" font-style="Roman" font-size="225" fill="black" text-anchor="middle">[1]</text>
<text x="7504" y="5700" font-family="Times" font-style="Roman" font-size="225" fill="black" text-anchor="middle">cashDeskBesStart</text>
<!-- Entry stopSaleBes s [1] -->
<line x1="7998.75" y1="6075" x2="9056.25" y2="6075" stroke="black" stroke-width="25"/>
<text x="8561" y="5925" font-family="Times" font-style="Roman" font-size="225" fill="black" text-anchor="middle">[1]</text>
<text x="8561" y="5700" font-family="Times" font-style="Roman" font-size="225" fill="black" text-anchor="middle">stopSaleBes</text>
<!-- Call CashDeskApplication CashDeskPC -->
<line x1="6660" y1="6525" x2="1545.28" y2="8257.08" stroke="black" stroke-width="25"/>
<polygon fill="black" stroke="black" stroke-width="25" points="1545.28,8257.08 1703.39,8256.32 1663.67,8216.98 1671.32,8161.61 "/>
<!-- Processor EnterpriseClient FCFS -->
<circle cx="9911" cy="5963" r="563"  fill="#ffffff" stroke="black" stroke-width="25"/>
<text x="9911" y="6056" font-family="Times" font-style="Roman" font-size="225" fill="black" text-anchor="middle">EnterpriseClient</text>
<!-- Task Reportingn  appReportingBes -1 EnterpriseServer -->
<polygon  fill="#ffffff" stroke="black" stroke-width="25" points="10811.2,5400 12498.8,5400 12386.2,6525 10698.8,6525 "/>
<text x="11599" y="6394" font-family="Times" font-style="Roman" font-size="225" fill="black" text-anchor="middle">Reporting</text>
<!-- Entry appReportingBes s [1] -->
<polyline  stroke="black" stroke-width="25" fill="none" points="11126.2,5400 11058.8,6075 12116.2,6075 12183.8,5400 "/>
<text x="11621" y="5925" font-family="Times" font-style="Roman" font-size="225" fill="black" text-anchor="middle">[1]</text>
<text x="11621" y="5700" font-family="Times" font-style="Roman" font-size="225" fill="black" text-anchor="middle">appReportingBes</text>
<!-- Call appReportingBes getEnterprise_bes0 y (1) -->
<line x1="11340" y1="6075" x2="7312.5" y2="7875" stroke="black" stroke-width="25"/>
<polygon fill="black" stroke="black" stroke-width="25" points="7312.5,7875 7469.85,7859.44 7426.62,7824 7429.04,7768.15 "/>
<text x="8319" y="7519" font-family="Times" font-style="Roman" font-size="225" fill="black" text-anchor="middle">(1)</text>
<!-- Call appReportingBes getEnterprise_bes1 y (1) -->
<line x1="11621.2" y1="6075" x2="8370" y2="7875" stroke="black" stroke-width="25"/>
<polygon fill="black" stroke="black" stroke-width="25" points="8370,7875 8525.45,7846.09 8479.36,7814.46 8477.01,7758.6 "/>
<text x="9183" y="7519" font-family="Times" font-style="Roman" font-size="225" fill="black" text-anchor="middle">(1)</text>
<!-- Call appReportingBes PersistenceBesSSR y (1) -->
<line x1="11902.5" y1="6075" x2="11790" y2="7875" stroke="black" stroke-width="25"/>
<polygon fill="black" stroke="black" stroke-width="25" points="11790,7875 11849.3,7728.41 11797.8,7750.24 11749.5,7722.17 "/>
<text x="11818" y="7519" font-family="Times" font-style="Roman" font-size="225" fill="black" text-anchor="middle">(1)</text>
<!-- Call Reporting EnterpriseServer -->
<line x1="11148.8" y1="6525" x2="9093.97" y2="10415.1" stroke="black" stroke-width="25"/>
<polygon fill="black" stroke="black" stroke-width="25" points="9093.97,10415.1 9208.24,10305.8 9152.35,10304.6 9119.81,10259.1 "/>
<!-- Processor BarCodeScanner FCFS -->
<circle cx="13286" cy="5963" r="563"  fill="#ffffff" stroke="black" stroke-width="25"/>
<text x="13286" y="6056" font-family="Times" font-style="Roman" font-size="225" fill="black" text-anchor="middle">BarCodeScanner</text>
<!-- Processor CashDeskPC FCFS -->
<circle cx="1013" cy="8438" r="563"  fill="#ffffff" stroke="black" stroke-width="25"/>
<text x="1013" y="8531" font-family="Times" font-style="Roman" font-size="225" fill="black" text-anchor="middle">CashDeskPC</text>
<!-- Task CashDeskGUIn  guiBes0 guiBes1 -1 LightDisplay -->
<polygon  fill="#ffffff" stroke="black" stroke-width="25" points="1912.5,7875 4027.5,7875 3915,9000 1800,9000 "/>
<text x="2914" y="8869" font-family="Times" font-style="Roman" font-size="225" fill="black" text-anchor="middle">CashDeskGUI</text>
<!-- Entry guiBes1 s [1] -->
<polyline  stroke="black" stroke-width="25" fill="none" points="1845,8550 2902.5,8550 2970,7875 "/>
<text x="2408" y="8400" font-family="Times" font-style="Roman" font-size="225" fill="black" text-anchor="middle">[1]</text>
<text x="2408" y="8175" font-family="Times" font-style="Roman" font-size="225" fill="black" text-anchor="middle">guiBes1</text>
<!-- Entry guiBes0 s [1] -->
<line x1="2902.5" y1="8550" x2="3960" y2="8550" stroke="black" stroke-width="25"/>
<text x="3465" y="8400" font-family="Times" font-style="Roman" font-size="225" fill="black" text-anchor="middle">[1]</text>
<text x="3465" y="8175" font-family="Times" font-style="Roman" font-size="225" fill="black" text-anchor="middle">guiBes0</text>
<!-- Call CashDeskGUI LightDisplay -->
<line x1="3470.62" y1="9000" x2="6973.52" y2="10670.4" stroke="black" stroke-width="25"/>
<polygon fill="black" stroke="black" stroke-width="25" points="6973.52,10670.4 6859.65,10560.7 6860.69,10616.6 6816.61,10651 "/>
<!-- Task DataStoren  dataStoreBes1 dataStoreBes0 -1 EnterpriseServer -->
<polygon  fill="#ffffff" stroke="black" stroke-width="25" points="4365,7875 6480,7875 6367.5,9000 4252.5,9000 "/>
<text x="5366" y="8869" font-family="Times" font-style="Roman" font-size="225" fill="black" text-anchor="middle">DataStore</text>
<!-- Entry dataStoreBes0 s [1] -->
<polyline  stroke="black" stroke-width="25" fill="none" points="4297.5,8550 5355,8550 5422.5,7875 "/>
<text x="4860" y="8400" font-family="Times" font-style="Roman" font-size="225" fill="black" text-anchor="middle">[1]</text>
<text x="4860" y="8175" font-family="Times" font-style="Roman" font-size="225" fill="black" text-anchor="middle">dataStoreBes0</text>
<!-- Entry dataStoreBes1 s [1] -->
<line x1="5355" y1="8550" x2="6412.5" y2="8550" stroke="black" stroke-width="25"/>
<text x="5918" y="8400" font-family="Times" font-style="Roman" font-size="225" fill="black" text-anchor="middle">[1]</text>
<text x="5918" y="8175" font-family="Times" font-style="Roman" font-size="225" fill="black" text-anchor="middle">dataStoreBes1</text>
<!-- Call DataStore EnterpriseServer -->
<line x1="5923.12" y1="9000" x2="8361.27" y2="10603.4" stroke="black" stroke-width="25"/>
<polygon fill="black" stroke="black" stroke-width="25" points="8361.27,10603.4 8263.42,10479.2 8256.83,10534.7 8208.47,10562.8 "/>
<!-- Task Enterprisen  getEnterprise_bes1 getEnterprise_bes0 -1 EnterpriseServer -->
<polygon  fill="#ffffff" stroke="black" stroke-width="25" points="6817.5,7875 8932.5,7875 8820,9000 6705,9000 "/>
<text x="7819" y="8869" font-family="Times" font-style="Roman" font-size="225" fill="black" text-anchor="middle">Enterprise</text>
<!-- Entry getEnterprise_bes0 s [1] -->
<polyline  stroke="black" stroke-width="25" fill="none" points="6750,8550 7807.5,8550 7875,7875 "/>
<text x="7313" y="8400" font-family="Times" font-style="Roman" font-size="225" fill="black" text-anchor="middle">[1]</text>
<text x="7313" y="8175" font-family="Times" font-style="Roman" font-size="225" fill="black" text-anchor="middle">getEnterprise_bes0</text>
<!-- Entry getEnterprise_bes1 s [1] -->
<line x1="7807.5" y1="8550" x2="8865" y2="8550" stroke="black" stroke-width="25"/>
<text x="8370" y="8400" font-family="Times" font-style="Roman" font-size="225" fill="black" text-anchor="middle">[1]</text>
<text x="8370" y="8175" font-family="Times" font-style="Roman" font-size="225" fill="black" text-anchor="middle">getEnterprise_bes1</text>
<!-- Call Enterprise EnterpriseServer -->
<line x1="8375.62" y1="9000" x2="8700.89" y2="10365.3" stroke="black" stroke-width="25"/>
<polygon fill="black" stroke="black" stroke-width="25" points="8700.89,10365.3 8714.77,10207.8 8671.92,10243.7 8617.49,10231 "/>
<!-- Task Inventoryn  inventoryBes0 -1 StoreServer -->
<polygon  fill="#ffffff" stroke="black" stroke-width="25" points="9270,7875 10957.5,7875 10845,9000 9157.5,9000 "/>
<text x="10057" y="8869" font-family="Times" font-style="Roman" font-size="225" fill="black" text-anchor="middle">Inventory</text>
<!-- Entry inventoryBes0 s [1] -->
<polyline  stroke="black" stroke-width="25" fill="none" points="9585,7875 9517.5,8550 10575,8550 10642.5,7875 "/>
<text x="10080" y="8400" font-family="Times" font-style="Roman" font-size="225" fill="black" text-anchor="middle">[1]</text>
<text x="10080" y="8175" font-family="Times" font-style="Roman" font-size="225" fill="black" text-anchor="middle">inventoryBes0</text>
<!-- Call Inventory StoreServer -->
<line x1="9607.5" y1="9000" x2="6624.09" y2="10641.4" stroke="black" stroke-width="25"/>
<polygon fill="black" stroke="black" stroke-width="25" points="6624.09,10641.4 6779.61,10612.9 6733.61,10581.1 6731.41,10525.2 "/>
<!-- Task Persistencen  persistenceBes PersistenceBesSSR -1 EnterpriseServer -->
<polygon  fill="#ffffff" stroke="black" stroke-width="25" points="11295,7875 13410,7875 13297.5,9000 11182.5,9000 "/>
<text x="12296" y="8869" font-family="Times" font-style="Roman" font-size="225" fill="black" text-anchor="middle">Persistence</text>
<!-- Entry PersistenceBesSSR s [1] -->
<polyline  stroke="black" stroke-width="25" fill="none" points="11227.5,8550 12285,8550 12352.5,7875 "/>
<text x="11790" y="8400" font-family="Times" font-style="Roman" font-size="225" fill="black" text-anchor="middle">[1]</text>
<text x="11790" y="8175" font-family="Times" font-style="Roman" font-size="225" fill="black" text-anchor="middle">PersistenceBesSSR</text>
<!-- Entry persistenceBes s [1] -->
<line x1="12285" y1="8550" x2="13342.5" y2="8550" stroke="black" stroke-width="25"/>
<text x="12848" y="8400" font-family="Times" font-style="Roman" font-size="225" fill="black" text-anchor="middle">[1]</text>
<text x="12848" y="8175" font-family="Times" font-style="Roman" font-size="225" fill="black" text-anchor="middle">persistenceBes</text>
<!-- Call Persistence EnterpriseServer -->
<line x1="11739.4" y1="9000" x2="9301.23" y2="10603.4" stroke="black" stroke-width="25"/>
<polygon fill="black" stroke="black" stroke-width="25" points="9301.23,10603.4 9454.03,10562.8 9405.67,10534.7 9399.08,10479.2 "/>
<!-- Task PrinterControllern  printerDeskBesStart printerBes1 -1 Printer -->
<polygon  fill="#ffffff" stroke="black" stroke-width="25" points="13747.5,7875 15862.5,7875 15750,9000 13635,9000 "/>
<text x="14749" y="8869" font-family="Times" font-style="Roman" font-size="225" fill="black" text-anchor="middle">PrinterController</text>
<!-- Entry printerBes1 s [1] -->
<polyline  stroke="black" stroke-width="25" fill="none" points="13680,8550 14737.5,8550 14805,7875 "/>
<text x="14242" y="8400" font-family="Times" font-style="Roman" font-size="225" fill="black" text-anchor="middle">[1]</text>
<text x="14242" y="8175" font-family="Times" font-style="Roman" font-size="225" fill="black" text-anchor="middle">printerBes1</text>
<!-- Entry printerDeskBesStart s [1] -->
<line x1="14737.5" y1="8550" x2="15795" y2="8550" stroke="black" stroke-width="25"/>
<text x="15300" y="8400" font-family="Times" font-style="Roman" font-size="225" fill="black" text-anchor="middle">[1]</text>
<text x="15300" y="8175" font-family="Times" font-style="Roman" font-size="225" fill="black" text-anchor="middle">printerDeskBesStart</text>
<!-- Call PrinterController Printer -->
<line x1="14748.7" y1="9000" x2="14748.7" y2="10350" stroke="black" stroke-width="25"/>
<polygon fill="black" stroke="black" stroke-width="25" points="14748.7,10350 14798.7,10200 14748.7,10225 14698.7,10200 "/>
<!-- Processor StoreServer FCFS -->
<circle cx="6131" cy="10913" r="563"  fill="#ffffff" stroke="black" stroke-width="25"/>
<text x="6131" y="11006" font-family="Times" font-style="Roman" font-size="225" fill="black" text-anchor="middle">StoreServer</text>
<!-- Processor LightDisplay FCFS -->
<circle cx="7481" cy="10913" r="563"  fill="#ffffff" stroke="black" stroke-width="25"/>
<text x="7481" y="11006" font-family="Times" font-style="Roman" font-size="225" fill="black" text-anchor="middle">LightDisplay</text>
<!-- Processor EnterpriseServer FCFS -->
<circle cx="8831" cy="10913" r="563"  fill="#ffffff" stroke="black" stroke-width="25"/>
<text x="8831" y="11006" font-family="Times" font-style="Roman" font-size="225" fill="black" text-anchor="middle">EnterpriseServer</text>
<!-- Processor Printer FCFS -->
<circle cx="14749" cy="10913" r="563"  fill="#ffffff" stroke="black" stroke-width="25"/>
<text x="14749" y="11006" font-family="Times" font-style="Roman" font-size="225" fill="black" text-anchor="middle">Printer</text>
</svg>
