<?xml version="1.0" standalone="no"?>
<!DOCTYPE svg PUBLIC "-//W3C//DTD SVG 20000303 Stylable//EN"
"http://www.w3.org/TR/2000/03/WD-SVG-20000303/DTD/svg-20000303-stylable.dtd">
<!-- Title: example.xml -->
<!-- Creator: lqn2svg Version 5.25 -->
<!-- Fri Mar  4 10:56:18 2022 -->
<!-- For: xeder -->
<!-- Invoked as: lqn2svg example.xml -->
<svg xmlns="http://www.w3.org/2000/svg" width="1.5in" height="3.875in" viewBox="0 0 2700 6975">
<desc>0x5602867c4b70</desc>
<!-- Task ac1r  bes1 -1 P1 -->
<polygon  fill="#ffffff" stroke="black" stroke-width="25" points="612.5,500 2300,500 2187.5,1625 500,1625 "/>
<polygon  fill="#ffffff" stroke="black" stroke-width="25" points="562.5,450 2250,450 2137.5,1575 450,1575 "/>
<text x="1350" y="1444" font-family="Times" font-style="Roman" font-size="225" fill="black" text-anchor="middle">ac1 {3}</text>
<!-- Entry bes1 s [0.2] -->
<polyline  stroke="black" stroke-width="25" fill="none" points="877.5,450 810,1125 1867.5,1125 1935,450 "/>
<text x="1373" y="975" font-family="Times" font-style="Roman" font-size="225" fill="black" text-anchor="middle">[0.2]</text>
<text x="1373" y="750" font-family="Times" font-style="Roman" font-size="225" fill="black" text-anchor="middle">bes1</text>
<!-- Call bes1 bes3 y (1) -->
<line x1="1372.5" y1="1125" x2="1372.5" y2="2925" stroke="black" stroke-width="25"/>
<polygon fill="black" stroke="black" stroke-width="25" points="1372.5,2925 1422.5,2775 1372.5,2800 1322.5,2775 "/>
<text x="1373" y="2569" font-family="Times" font-style="Roman" font-size="225" fill="black" text-anchor="middle">(1)</text>
<!-- Call ac1 P1 -->
<line x1="1350" y1="1575" x2="1350" y2="5400" stroke="black" stroke-width="25"/>
<polygon fill="black" stroke="black" stroke-width="25" points="1350,5400 1400,5250 1350,5275 1300,5250 "/>
<!-- Task An  bes3 -1 P1 -->
<polygon  fill="#ffffff" stroke="black" stroke-width="25" points="562.5,2925 2250,2925 2137.5,4050 450,4050 "/>
<text x="1350" y="3919" font-family="Times" font-style="Roman" font-size="225" fill="black" text-anchor="middle">A</text>
<!-- Entry bes3 s [0.2] -->
<polyline  stroke="black" stroke-width="25" fill="none" points="877.5,2925 810,3600 1867.5,3600 1935,2925 "/>
<text x="1373" y="3450" font-family="Times" font-style="Roman" font-size="225" fill="black" text-anchor="middle">[0.2]</text>
<text x="1373" y="3225" font-family="Times" font-style="Roman" font-size="225" fill="black" text-anchor="middle">bes3</text>
<!-- Call A P1 -->
<line x1="1350" y1="4050" x2="1350" y2="5400" stroke="black" stroke-width="25"/>
<polygon fill="black" stroke="black" stroke-width="25" points="1350,5400 1400,5250 1350,5275 1300,5250 "/>
<!-- Processor P1 FCFS -->
<circle cx="1350" cy="5963" r="563"  fill="#ffffff" stroke="black" stroke-width="25"/>
<text x="1350" y="6056" font-family="Times" font-style="Roman" font-size="225" fill="black" text-anchor="middle">P1</text>
</svg>
